<svg width="36" height="36" viewBox="0 0 36 36" fill="none" xmlns="http://www.w3.org/2000/svg">
<path d="M22.5683 8.87934C22.5683 11.5356 20.4149 13.689 17.7587 13.689C15.1024 13.689 12.949 11.5356 12.949 8.87934C12.949 6.22304 15.1024 4.0697 17.7587 4.0697C20.4149 4.0697 22.5683 6.22304 22.5683 8.87934Z" stroke="url(#paint0_linear_1_236)" stroke-width="2.21983"/>
<path d="M27.008 25.1581C27.008 26.7498 26.1066 28.2957 24.4386 29.487C22.7728 30.677 20.4146 31.4476 17.7587 31.4476C15.1027 31.4476 12.7445 30.677 11.0787 29.487C9.41078 28.2957 8.50937 26.7498 8.50937 25.1581C8.50937 23.5663 9.41078 22.0204 11.0787 20.8291C12.7445 19.6391 15.1027 18.8685 17.7587 18.8685C20.4146 18.8685 22.7728 19.6391 24.4386 20.8291C26.1066 22.0204 27.008 23.5663 27.008 25.1581Z" stroke="url(#paint1_linear_1_236)" stroke-width="2.21983"/>
<defs>
<linearGradient id="paint0_linear_1_236" x1="17.7587" y1="4.0697" x2="17.7587" y2="13.689" gradientUnits="userSpaceOnUse">
<stop stop-color="white"/>
<stop offset="1" stop-color="#E7E7E7" stop-opacity="0.4"/>
</linearGradient>
<linearGradient id="paint1_linear_1_236" x1="17.7587" y1="18.8685" x2="17.7587" y2="31.4476" gradientUnits="userSpaceOnUse">
<stop stop-color="white"/>
<stop offset="1" stop-color="#E7E7E7" stop-opacity="0.4"/>
</linearGradient>
</defs>
</svg>
