<svg width="28" height="28" viewBox="0 0 28 28" fill="none" xmlns="http://www.w3.org/2000/svg">
<path d="M24.6394 13.8533C24.6394 8.03631 19.9237 3.32068 14.1067 3.32068C8.28967 3.32068 3.57404 8.03631 3.57404 13.8533C3.57404 19.6704 8.28967 24.386 14.1067 24.386C19.9237 24.386 24.6394 19.6704 24.6394 13.8533Z" stroke="#525252" stroke-width="1.708"/>
<path d="M12.7069 11.7226L15.8103 10.7148C16.695 10.4275 17.5323 11.2647 17.2449 12.1494L16.2372 15.2528C16.1246 15.5996 15.8527 15.8715 15.5058 15.9841L12.4025 16.992C11.5178 17.2793 10.6805 16.442 10.9678 15.5572L11.9756 12.4538C12.0883 12.1071 12.3602 11.8352 12.7069 11.7226Z" stroke="#525252" stroke-width="1.708"/>
</svg>
