<svg width="29" height="28" viewBox="0 0 29 28" fill="none" xmlns="http://www.w3.org/2000/svg">
<path d="M18.3513 7.02135C18.3513 9.06517 16.6945 10.722 14.6507 10.722C12.6069 10.722 10.95 9.06517 10.95 7.02135C10.95 4.97752 12.6069 3.32068 14.6507 3.32068C16.6945 3.32068 18.3513 4.97752 18.3513 7.02135Z" stroke="#525252" stroke-width="1.708"/>
<path d="M21.7673 19.5466C21.7673 20.7714 21.0738 21.9608 19.7904 22.8774C18.5087 23.793 16.6942 24.3859 14.6507 24.3859C12.6071 24.3859 10.7926 23.793 9.51093 22.8774C8.22757 21.9608 7.534 20.7714 7.534 19.5466C7.534 18.3219 8.22757 17.1324 9.51093 16.2158C10.7926 15.3002 12.6071 14.7073 14.6507 14.7073C16.6942 14.7073 18.5087 15.3002 19.7904 16.2158C21.0738 17.1324 21.7673 18.3219 21.7673 19.5466Z" stroke="#525252" stroke-width="1.708"/>
</svg>
